<svg width="15" height="15" viewBox="0 0 15 15" fill="none" xmlns="http://www.w3.org/2000/svg">
<path d="M7.85205 1.5616L7.83344 1.60502L6.03473 5.77926H4.26704C3.84527 5.77926 3.44212 5.86609 3.07617 6.02116L4.1616 3.42854L4.18641 3.36651L4.22982 3.26727C4.24223 3.23006 4.25463 3.19285 4.27324 3.16183C5.08576 1.2825 6.00372 0.854527 7.85205 1.5616Z" stroke="#936DFF" stroke-width="0.930365" stroke-linecap="round" stroke-linejoin="round"/>
<path d="M11.1956 5.90323C10.9165 5.81639 10.6188 5.77918 10.321 5.77918H6.03516L7.83386 1.60494L7.85247 1.56152C7.94551 1.59254 8.03234 1.63595 8.12538 1.67317L9.49611 2.24999C10.259 2.56632 10.7924 2.89505 11.115 3.292C11.177 3.36643 11.2266 3.43466 11.27 3.51529C11.3258 3.60212 11.3693 3.68896 11.3941 3.78199C11.4189 3.83782 11.4375 3.89364 11.4499 3.94326C11.6173 4.46426 11.5181 5.10311 11.1956 5.90323Z" stroke="#936DFF" stroke-width="0.930365" stroke-linecap="round" stroke-linejoin="round"/>
<path d="M13.349 8.80609V10.0156C13.349 10.1396 13.3428 10.2637 13.3366 10.3877C13.2187 12.5524 12.0093 13.644 9.71437 13.644H4.87647C4.72761 13.644 4.57875 13.6316 4.4361 13.613C2.46372 13.4827 1.40931 12.4283 1.27906 10.4559C1.26045 10.3133 1.24805 10.1644 1.24805 10.0156V8.80609C1.24805 7.5594 2.00474 6.48637 3.08397 6.02119C3.45611 5.86613 3.85307 5.7793 4.27484 5.7793H10.3284C10.6323 5.7793 10.93 5.82271 11.203 5.90335C12.4372 6.28169 13.349 7.43535 13.349 8.80609Z" stroke="#936DFF" stroke-width="0.930365" stroke-linecap="round" stroke-linejoin="round"/>
<path d="M4.16158 3.42871L3.07615 6.02133C1.99693 6.48651 1.24023 7.55953 1.24023 8.80622V6.98891C1.24023 5.22742 2.49313 3.75744 4.16158 3.42871Z" stroke="#936DFF" stroke-width="0.930365" stroke-linecap="round" stroke-linejoin="round"/>
<path d="M13.3472 6.98889V8.8062C13.3472 7.44166 12.4417 6.28181 11.2012 5.90966C11.5237 5.10335 11.6167 4.4707 11.4617 3.94349C11.4493 3.88767 11.4307 3.83185 11.4059 3.78223C12.5595 4.37766 13.3472 5.59954 13.3472 6.98889Z" stroke="#936DFF" stroke-width="0.930365" stroke-linecap="round" stroke-linejoin="round"/>
</svg>
