<svg width="15" height="15" viewBox="0 0 15 15" fill="none" xmlns="http://www.w3.org/2000/svg">
<path d="M10.5439 12.715H4.34145C2.48072 12.715 1.24023 11.7847 1.24023 9.61382V5.27212C1.24023 3.10126 2.48072 2.1709 4.34145 2.1709H10.5439C12.4046 2.1709 13.6451 3.10126 13.6451 5.27212V9.61382C13.6451 11.7847 12.4046 12.715 10.5439 12.715Z" stroke="#22C55E" stroke-width="0.930365" stroke-miterlimit="10" stroke-linecap="round" stroke-linejoin="round"/>
<path d="M7.44276 9.30349C8.47041 9.30349 9.30349 8.47041 9.30349 7.44276C9.30349 6.41511 8.47041 5.58203 7.44276 5.58203C6.41511 5.58203 5.58203 6.41511 5.58203 7.44276C5.58203 8.47041 6.41511 9.30349 7.44276 9.30349Z" stroke="#22C55E" stroke-width="0.930365" stroke-miterlimit="10" stroke-linecap="round" stroke-linejoin="round"/>
<path d="M3.41113 5.89258V8.9938" stroke="#22C55E" stroke-width="0.930365" stroke-miterlimit="10" stroke-linecap="round" stroke-linejoin="round"/>
<path d="M11.4746 5.89258V8.9938" stroke="#22C55E" stroke-width="0.930365" stroke-miterlimit="10" stroke-linecap="round" stroke-linejoin="round"/>
</svg>
