<svg width="16" height="13" viewBox="0 0 16 13" fill="none" xmlns="http://www.w3.org/2000/svg">
<path fill-rule="evenodd" clip-rule="evenodd" d="M0 4.26367C0 1.85478 2.11332 0 4.59389 0C5.87258 0 6.99774 0.59956 7.80516 1.37534C8.61258 0.59956 9.73774 0 11.0164 0C13.497 0 15.6103 1.85478 15.6103 4.26367C15.6103 5.91378 14.9066 7.3649 13.9317 8.59151C12.9585 9.816 11.6854 10.8552 10.4665 11.6997C10.0009 12.0222 9.52989 12.3198 9.09883 12.5393C8.69406 12.7454 8.22864 12.9343 7.80516 12.9343C7.38168 12.9343 6.91626 12.7454 6.51149 12.5393C6.08043 12.3198 5.60942 12.0222 5.14385 11.6997C3.92492 10.8552 2.65186 9.816 1.67862 8.59151C0.703696 7.3649 0 5.91379 0 4.26367ZM4.59389 1.33803C2.73917 1.33803 1.33803 2.70201 1.33803 4.26367C1.33803 5.51561 1.86948 6.68122 2.72609 7.75897C3.58438 8.83884 4.73922 9.79162 5.90582 10.5998C6.34726 10.9056 6.76305 11.1659 7.11871 11.347C7.50067 11.5415 7.7219 11.5962 7.80516 11.5962C7.88842 11.5962 8.10965 11.5415 8.49161 11.347C8.84727 11.1659 9.26306 10.9056 9.7045 10.5998C10.8711 9.79162 12.0259 8.83884 12.8842 7.75897C13.7408 6.68122 14.2723 5.51561 14.2723 4.26367C14.2723 2.70201 12.8712 1.33803 11.0164 1.33803C9.95122 1.33803 8.95657 1.97441 8.33552 2.78214C8.20889 2.94684 8.01292 3.04336 7.80516 3.04336C7.5974 3.04336 7.40143 2.94684 7.2748 2.78214C6.65375 1.97441 5.6591 1.33803 4.59389 1.33803Z" fill="#323142"/>
</svg>
