<svg width="12" height="16" viewBox="0 0 12 16" fill="none" xmlns="http://www.w3.org/2000/svg">
<path d="M9.28302 0.29021C6.97491 -0.0967368 4.60605 -0.0967368 2.29795 0.29021C1.45472 0.431576 0.783189 1.07893 0.614116 1.91829C-0.160441 5.76359 -0.202703 9.72049 0.489547 13.5815L0.771386 15.1534C0.858291 15.6381 1.4492 15.8318 1.80621 15.4927L5.20816 12.2608C5.53449 11.9508 6.04648 11.9508 6.3728 12.2608L9.77476 15.4927C10.1318 15.8318 10.7227 15.6381 10.8096 15.1534L11.0914 13.5815C11.7837 9.72049 11.7414 5.76359 10.9668 1.91829C10.7978 1.07893 10.1262 0.431575 9.28302 0.29021Z" fill="#6C5FBC"/>
</svg>
