<svg width="128" height="221" viewBox="0 0 128 221" fill="none" xmlns="http://www.w3.org/2000/svg">
<path opacity="0.2" d="M249.871 -80.8447C226.393 -78.6528 200.893 -78.3091 178.015 -73.183C155.629 -68.1671 132.053 -59.0673 112.357 -49.4564C76.0612 -31.7454 57.4716 -6.95103 40.6064 22.6297C12.7738 71.4467 2.69712 122.078 2.26213 175.123C1.97417 210.239 3.3241 244.997 6.9895 279.998C8.10859 290.684 7.54926 302.9 15.3937 312.128" stroke="#A596FF" stroke-width="4.44874" stroke-linecap="round"/>
<path opacity="0.2" d="M297.325 -55.6357C273.143 -53.3776 246.88 -53.0235 223.318 -47.7427C200.261 -42.5754 175.98 -33.2008 155.694 -23.2998C118.311 -5.05417 99.1648 20.4887 81.7946 50.9625C53.1287 101.253 42.7503 153.413 42.3023 208.059C42.0057 244.235 43.3961 280.042 47.1712 316.1C48.3238 327.109 47.7477 339.694 55.8271 349.2" stroke="#A596FF" stroke-width="4.44874" stroke-linecap="round"/>
</svg>
